<svg width="17" height="14" viewBox="0 0 17 14" fill="none" xmlns="http://www.w3.org/2000/svg">
<path d="M15.0769 2.15385H12.4615L11.8385 0.407693C11.7954 0.288208 11.7165 0.184927 11.6126 0.111957C11.5086 0.0389873 11.3847 -0.000112042 11.2577 2.41159e-07H5.35769C5.09808 2.41159e-07 4.86538 0.163462 4.77885 0.407693L4.15385 2.15385H1.53846C0.688462 2.15385 0 2.84231 0 3.69231V12.4615C0 13.3115 0.688462 14 1.53846 14H15.0769C15.9269 14 16.6154 13.3115 16.6154 12.4615V3.69231C16.6154 2.84231 15.9269 2.15385 15.0769 2.15385ZM8.30769 10.9231C6.60769 10.9231 5.23077 9.54615 5.23077 7.84615C5.23077 6.14615 6.60769 4.76923 8.30769 4.76923C10.0077 4.76923 11.3846 6.14615 11.3846 7.84615C11.3846 9.54615 10.0077 10.9231 8.30769 10.9231ZM6.46154 7.84615C6.46154 8.33578 6.65604 8.80536 7.00226 9.15158C7.34849 9.4978 7.81806 9.69231 8.30769 9.69231C8.79732 9.69231 9.2669 9.4978 9.61312 9.15158C9.95934 8.80536 10.1538 8.33578 10.1538 7.84615C10.1538 7.35652 9.95934 6.88695 9.61312 6.54073C9.2669 6.1945 8.79732 6 8.30769 6C7.81806 6 7.34849 6.1945 7.00226 6.54073C6.65604 6.88695 6.46154 7.35652 6.46154 7.84615Z" fill="white"/>
</svg>
