<svg width="18" height="16" viewBox="0 0 18 16" fill="none" xmlns="http://www.w3.org/2000/svg">
<path d="M17.5227 14.3636H1.88636V0.181818C1.88636 0.0818182 1.80455 0 1.70455 0H0.431818C0.331818 0 0.25 0.0818182 0.25 0.181818V15.8182C0.25 15.9182 0.331818 16 0.431818 16H17.5227C17.6227 16 17.7045 15.9182 17.7045 15.8182V14.5455C17.7045 14.4455 17.6227 14.3636 17.5227 14.3636ZM4.29091 10.8568C4.36136 10.9273 4.475 10.9273 4.54773 10.8568L7.69091 7.72955L10.5909 10.6477C10.6614 10.7182 10.7773 10.7182 10.8477 10.6477L17.1068 4.39091C17.1773 4.32046 17.1773 4.20455 17.1068 4.13409L16.2068 3.23409C16.1726 3.20025 16.1265 3.18127 16.0784 3.18127C16.0303 3.18127 15.9842 3.20025 15.95 3.23409L10.7227 8.45909L7.82727 5.54545C7.7931 5.51162 7.74695 5.49264 7.69886 5.49264C7.65077 5.49264 7.60463 5.51162 7.57046 5.54545L3.39318 9.69773C3.35934 9.7319 3.34036 9.77805 3.34036 9.82614C3.34036 9.87423 3.35934 9.92037 3.39318 9.95455L4.29091 10.8568Z" fill="#303030"/>
</svg>
