<svg width="17" height="16" viewBox="0 0 17 16" fill="none" xmlns="http://www.w3.org/2000/svg">
<path fill-rule="evenodd" clip-rule="evenodd" d="M11.479 8.146C11.5256 8.19245 11.5625 8.24762 11.5877 8.30837C11.6129 8.36911 11.6259 8.43423 11.6259 8.5C11.6259 8.56577 11.6129 8.63089 11.5877 8.69163C11.5625 8.75238 11.5256 8.80755 11.479 8.854L8.479 11.854C8.43255 11.9006 8.37738 11.9375 8.31663 11.9627C8.25589 11.9879 8.19077 12.0009 8.125 12.0009C8.05923 12.0009 7.99411 11.9879 7.93337 11.9627C7.87262 11.9375 7.81745 11.9006 7.771 11.854L6.271 10.354C6.22451 10.3075 6.18764 10.2523 6.16248 10.1916C6.13732 10.1308 6.12437 10.0657 6.12437 10C6.12437 9.93426 6.13732 9.86916 6.16248 9.80842C6.18764 9.74768 6.22451 9.69249 6.271 9.646C6.36489 9.55211 6.49222 9.49937 6.625 9.49937C6.69074 9.49937 6.75584 9.51232 6.81658 9.53748C6.87732 9.56264 6.93251 9.59951 6.979 9.646L8.125 10.793L10.771 8.146C10.8174 8.09944 10.8726 8.06249 10.9334 8.03729C10.9941 8.01208 11.0592 7.99911 11.125 7.99911C11.1908 7.99911 11.2559 8.01208 11.3166 8.03729C11.3774 8.06249 11.4326 8.09944 11.479 8.146Z" fill="#303030"/>
<path fill-rule="evenodd" clip-rule="evenodd" d="M14.625 2H2.625C2.35978 2 2.10543 2.10536 1.91789 2.29289C1.73036 2.48043 1.625 2.73478 1.625 3V14C1.625 14.2652 1.73036 14.5196 1.91789 14.7071C2.10543 14.8946 2.35978 15 2.625 15H14.625C14.8902 15 15.1446 14.8946 15.3321 14.7071C15.5196 14.5196 15.625 14.2652 15.625 14V3C15.625 2.73478 15.5196 2.48043 15.3321 2.29289C15.1446 2.10536 14.8902 2 14.625 2ZM2.625 1C2.09457 1 1.58586 1.21071 1.21079 1.58579C0.835714 1.96086 0.625 2.46957 0.625 3V14C0.625 14.5304 0.835714 15.0391 1.21079 15.4142C1.58586 15.7893 2.09457 16 2.625 16H14.625C15.1554 16 15.6641 15.7893 16.0392 15.4142C16.4143 15.0391 16.625 14.5304 16.625 14V3C16.625 2.46957 16.4143 1.96086 16.0392 1.58579C15.6641 1.21071 15.1554 1 14.625 1H2.625Z" fill="#303030"/>
<path fill-rule="evenodd" clip-rule="evenodd" d="M4.125 0C4.25761 0 4.38479 0.0526784 4.47855 0.146447C4.57232 0.240215 4.625 0.367392 4.625 0.5V1C4.625 1.13261 4.57232 1.25979 4.47855 1.35355C4.38479 1.44732 4.25761 1.5 4.125 1.5C3.99239 1.5 3.86521 1.44732 3.77145 1.35355C3.67768 1.25979 3.625 1.13261 3.625 1V0.5C3.625 0.367392 3.67768 0.240215 3.77145 0.146447C3.86521 0.0526784 3.99239 0 4.125 0ZM13.125 0C13.2576 0 13.3848 0.0526784 13.4786 0.146447C13.5723 0.240215 13.625 0.367392 13.625 0.5V1C13.625 1.13261 13.5723 1.25979 13.4786 1.35355C13.3848 1.44732 13.2576 1.5 13.125 1.5C12.9924 1.5 12.8652 1.44732 12.7714 1.35355C12.6777 1.25979 12.625 1.13261 12.625 1V0.5C12.625 0.367392 12.6777 0.240215 12.7714 0.146447C12.8652 0.0526784 12.9924 0 13.125 0Z" fill="#303030"/>
<path d="M3.125 4C3.125 3.86739 3.17768 3.74021 3.27145 3.64645C3.36521 3.55268 3.49239 3.5 3.625 3.5H13.625C13.7576 3.5 13.8848 3.55268 13.9786 3.64645C14.0723 3.74021 14.125 3.86739 14.125 4V5C14.125 5.13261 14.0723 5.25979 13.9786 5.35355C13.8848 5.44732 13.7576 5.5 13.625 5.5H3.625C3.49239 5.5 3.36521 5.44732 3.27145 5.35355C3.17768 5.25979 3.125 5.13261 3.125 5V4Z" fill="#303030"/>
</svg>
