<svg width="40" height="30" viewBox="0 0 40 30" fill="none" xmlns="http://www.w3.org/2000/svg">
<path d="M5.78769 2.30769H33.48V20.7692H35.7877V1.73077C35.7877 1.27174 35.6053 0.831513 35.2808 0.50693C34.9562 0.182348 34.516 0 34.0569 0H5.21077C4.75174 0 4.31151 0.182348 3.98693 0.50693C3.66235 0.831513 3.48 1.27174 3.48 1.73077V20.7692H5.78769V2.30769Z" fill="white"/>
<path d="M0 23.0769V27C0 27.7956 0.316071 28.5587 0.87868 29.1213C1.44129 29.6839 2.20435 30 3 30H36.1615C36.9572 30 37.7202 29.6839 38.2829 29.1213C38.8455 28.5587 39.1615 27.7956 39.1615 27V23.0769H0ZM36.9231 27C36.9231 27.1836 36.8501 27.3597 36.7203 27.4895C36.5905 27.6194 36.4144 27.6923 36.2308 27.6923H2.95385C2.77023 27.6923 2.59414 27.6194 2.46431 27.4895C2.33448 27.3597 2.26154 27.1836 2.26154 27V24.8423H13.7423C13.8866 25.1827 14.1273 25.4733 14.4349 25.6784C14.7425 25.8834 15.1034 25.9939 15.4731 25.9962H23.7C24.0697 25.9939 24.4306 25.8834 24.7381 25.6784C25.0457 25.4733 25.2865 25.1827 25.4308 24.8423H36.9231V27Z" fill="white"/>
<path d="M26.9325 4.98H12.3075C11.3755 4.98 10.62 5.73551 10.62 6.6675V19.0425C10.62 19.9745 11.3755 20.73 12.3075 20.73H26.9325C27.8645 20.73 28.62 19.9745 28.62 19.0425V6.6675C28.62 5.73551 27.8645 4.98 26.9325 4.98ZM26.7216 19.0425H12.5184C12.4625 19.0425 12.4088 19.0203 12.3693 18.9807C12.3297 18.9412 12.3075 18.8875 12.3075 18.8316V6.87844C12.3075 6.82249 12.3297 6.76884 12.3693 6.72928C12.4088 6.68972 12.4625 6.6675 12.5184 6.6675H26.7216C26.7775 6.6675 26.8312 6.68972 26.8707 6.72928C26.9103 6.76884 26.9325 6.82249 26.9325 6.87844V18.8316C26.9325 18.8875 26.9103 18.9412 26.8707 18.9807C26.8312 19.0203 26.7775 19.0425 26.7216 19.0425ZM25.245 15.8081V16.6519C25.245 16.8849 25.0561 17.0737 24.8231 17.0737H17.7919C17.5589 17.0737 17.37 16.8849 17.37 16.6519V15.8081C17.37 15.5751 17.5589 15.3862 17.7919 15.3862H24.8231C25.0561 15.3862 25.245 15.5751 25.245 15.8081ZM25.245 12.4331V13.2769C25.245 13.5099 25.0561 13.6987 24.8231 13.6987H17.7919C17.5589 13.6987 17.37 13.5099 17.37 13.2769V12.4331C17.37 12.2001 17.5589 12.0112 17.7919 12.0112H24.8231C25.0561 12.0112 25.245 12.2001 25.245 12.4331ZM25.245 9.05812V9.90187C25.245 10.1349 25.0561 10.3237 24.8231 10.3237H17.7919C17.5589 10.3237 17.37 10.1349 17.37 9.90187V9.05812C17.37 8.82514 17.5589 8.63625 17.7919 8.63625H24.8231C25.0561 8.63625 25.245 8.82514 25.245 9.05812ZM16.3856 9.48C16.3856 10.179 15.819 10.7456 15.12 10.7456C14.421 10.7456 13.8544 10.179 13.8544 9.48C13.8544 8.78102 14.421 8.21437 15.12 8.21437C15.819 8.21437 16.3856 8.78102 16.3856 9.48ZM16.3856 12.855C16.3856 13.554 15.819 14.1206 15.12 14.1206C14.421 14.1206 13.8544 13.554 13.8544 12.855C13.8544 12.156 14.421 11.5894 15.12 11.5894C15.819 11.5894 16.3856 12.156 16.3856 12.855ZM16.3856 16.23C16.3856 16.929 15.819 17.4956 15.12 17.4956C14.421 17.4956 13.8544 16.929 13.8544 16.23C13.8544 15.531 14.421 14.9644 15.12 14.9644C15.819 14.9644 16.3856 15.531 16.3856 16.23Z" fill="white"/>
</svg>
